# xmcd
#
# Track frame offsets:
#	150
#	15525
#	34667
#	55960
#	72668
#	86956
#	102804
#	115972
#	132152
#	152378
#
# Disc length: 2275 seconds
#
# Revision: 0
# Processed by: cddbd v1.5.1PL0 Copyright (c) Steve Scherf et al.
# Submitted via: dBpowerAMP V4.0
#
DISCID=8008e10a
DTITLE=阿宝 - 阿宝
DYEAR=1900
DGENRE=Vocal
TTITLE0=01 想亲亲
TTITLE1=02 兰花花
TTITLE2=03 五哥放羊
TTITLE3=04 赶牲灵
TTITLE4=05 疙粱粱
TTITLE5=06 想着个人睡不香
TTITLE6=07 天上不会掉馍馍
TTITLE7=08 大拜年
TTITLE8=09 亲亲小妹子
TTITLE9=10 山丹丹花开红艳艳
EXTD=
EXTT0=
EXTT1=
EXTT2=
EXTT3=
EXTT4=
EXTT5=
EXTT6=
EXTT7=
EXTT8=
EXTT9=
PLAYORDER=
